<svg width="405" height="349" viewBox="0 0 405 349" fill="none" xmlns="http://www.w3.org/2000/svg">
<rect opacity="0.25" x="53" width="300" height="300" rx="150" fill="#D4DBF2"/>
<rect x="77" y="24" width="252" height="252" rx="126" fill="white"/>
<path d="M248.331 140.711V99.3794H253.558C255.693 99.3884 257.632 98.1322 258.496 96.1795C259.413 94.2196 259.087 91.9034 257.665 90.2732L241.745 71.9405C240.701 70.7955 239.224 70.1418 237.675 70.1393C236.126 70.1368 234.646 70.7855 233.599 71.9273L217.666 90.2732C216.244 91.904 215.918 94.2196 216.834 96.1795C217.698 98.1328 219.637 99.389 221.773 99.3794H226.999V140.711C204.685 146.113 189.933 167.344 192.653 190.141C195.373 212.938 214.707 230.102 237.665 230.102C260.624 230.102 279.957 212.938 282.678 190.141C285.398 167.344 270.645 146.113 248.331 140.711V140.711ZM229.666 94.0461H221.733L221.706 93.7796L237.705 75.431L253.625 93.7796L253.558 94.0461H245.665C244.192 94.0461 242.999 95.2402 242.999 96.7126V139.719C239.458 139.264 235.873 139.264 232.332 139.719V96.7126C232.332 95.2402 231.138 94.0461 229.666 94.0461V94.0461ZM237.665 224.708C215.575 224.708 197.667 206.8 197.667 184.709C197.667 162.619 215.575 144.711 237.665 144.711C259.756 144.711 277.664 162.619 277.664 184.709C277.639 206.789 259.745 224.683 237.665 224.708Z" fill="#273B98"/>
<path d="M157.669 159.39V200.708H152.442C150.306 200.699 148.367 201.955 147.503 203.908C146.587 205.868 146.914 208.184 148.335 209.815L164.255 228.147C165.266 229.348 166.755 230.042 168.325 230.044C169.895 230.047 171.386 229.358 172.401 228.16L188.323 209.815C189.752 208.185 190.083 205.865 189.166 203.9C188.3 201.95 186.361 200.697 184.227 200.708H179.001V159.39C201.315 153.988 216.067 132.757 213.347 109.96C210.627 87.164 191.293 70 168.335 70C145.376 70 126.043 87.164 123.322 109.961C120.602 132.757 135.355 153.988 157.669 159.39V159.39ZM176.334 206.042H184.267L184.294 206.308L168.295 224.657L152.375 206.308L152.442 206.042H160.335C161.808 206.042 163.001 204.848 163.001 203.375V160.369C164.771 160.587 166.552 160.7 168.335 160.71C170.117 160.7 171.898 160.586 173.668 160.369V203.375C173.668 204.848 174.862 206.042 176.334 206.042V206.042ZM168.335 75.3804C190.425 75.3804 208.333 93.2884 208.333 115.379C208.333 137.469 190.425 155.377 168.335 155.377C146.244 155.377 128.336 137.469 128.336 115.379C128.361 93.2987 146.255 75.4054 168.335 75.3804V75.3804Z" fill="#273B98"/>
<path d="M157.669 126.045C157.669 124.572 156.475 123.379 155.002 123.379C153.529 123.379 152.336 124.573 152.336 126.045C152.336 132.637 158.114 138.114 165.669 139.178V144.711C165.669 146.184 166.863 147.378 168.335 147.378C169.807 147.378 171.001 146.184 171.001 144.711V139.178C178.556 138.111 184.334 132.637 184.334 126.045C184.334 119.453 178.556 113.976 171.001 112.912V96.9983C175.588 97.8917 179.001 100.998 179.001 104.713C179.001 106.185 180.195 107.379 181.668 107.379C183.14 107.379 184.334 106.185 184.334 104.713C184.334 98.1211 178.555 92.6438 171.001 91.5798V86.0466C171.001 84.5738 169.807 83.3801 168.335 83.3801C166.862 83.3801 165.668 84.5741 165.668 86.0466V91.5798C158.114 92.6463 152.335 98.1208 152.335 104.713C152.335 111.305 158.114 116.782 165.668 117.846V133.76C161.082 132.866 157.669 129.762 157.669 126.045V126.045ZM179.001 126.045C179.001 129.762 175.587 132.866 171.001 133.759V118.331C175.588 119.224 179.001 122.328 179.001 126.045V126.045ZM157.669 104.712C157.669 100.995 161.082 97.8914 165.668 96.998V112.427C161.082 111.534 157.669 108.43 157.669 104.712V104.712Z" fill="#273B98"/>
<path d="M237.665 166.043C242.67 166.134 247.304 168.701 250.035 172.897C250.564 173.714 251.496 174.178 252.467 174.107C253.438 174.037 254.293 173.443 254.699 172.558C255.104 171.673 254.995 170.638 254.414 169.857C250.698 164.214 244.421 160.786 237.665 160.71C228.192 161.079 220.056 167.559 217.578 176.71H210.999C209.527 176.71 208.333 177.904 208.333 179.376C208.333 180.849 209.527 182.043 210.999 182.043H216.471C216.386 182.92 216.332 183.808 216.332 184.709C216.332 185.61 216.386 186.498 216.471 187.376H210.999C209.527 187.376 208.333 188.569 208.333 190.042C208.333 191.515 209.527 192.709 210.999 192.709H217.578C220.056 201.859 228.192 208.339 237.665 208.708C244.421 208.632 250.698 205.204 254.414 199.562C254.995 198.78 255.104 197.745 254.699 196.86C254.293 195.975 253.438 195.382 252.467 195.311C251.496 195.24 250.564 195.705 250.035 196.522C247.304 200.717 242.67 203.284 237.665 203.375C231.128 203.097 225.416 198.876 223.231 192.709H237.665C239.138 192.709 240.332 191.515 240.332 190.042C240.332 188.57 239.138 187.376 237.665 187.376H221.847C221.605 185.606 221.605 183.812 221.847 182.043H237.665C239.138 182.043 240.332 180.849 240.332 179.376C240.332 177.904 239.138 176.71 237.665 176.71H223.231C225.416 170.542 231.128 166.321 237.665 166.043V166.043Z" fill="#273B98"/>
</svg>
