<svg width="60" height="60" viewBox="0 0 60 60" fill="none" xmlns="http://www.w3.org/2000/svg">
<path d="M60 30C60 13.4297 46.5703 0 30 0C13.4297 0 0 13.4297 0 30C0 46.5703 13.4297 60 30 60C30.1758 60 30.3516 60 30.5273 59.9883V36.6445H24.082V29.1328H30.5273V23.6016C30.5273 17.1914 34.4414 13.6992 40.1602 13.6992C42.9023 13.6992 45.2578 13.8984 45.9375 13.9922V20.6953H42C38.8945 20.6953 38.2852 22.1719 38.2852 24.3398V29.1211H45.7266L44.7539 36.6328H38.2852V58.8398C50.8242 55.2422 60 43.6992 60 30V30Z" fill="#D4DBF2"/>
</svg>
